<?xml version="1.0" encoding="UTF-8" standalone="no"?>
<!-- Created with Inkscape (http://www.inkscape.org/) -->

<svg
   width="16.881002mm"
   height="14.362269mm"
   viewBox="0 0 16.881002 14.362269"
   version="1.1"
   id="svg1"
   xml:space="preserve"
   xmlns="http://www.w3.org/2000/svg"
   xmlns:svg="http://www.w3.org/2000/svg"><defs
     id="defs1" /><rect
     style="fill:#ffffff;fill-opacity:1;stroke:#ffffff;stroke-width:0.299171;stroke-linecap:round;stroke-linejoin:round;stroke-miterlimit:15.4;stroke-opacity:1;paint-order:normal"
     id="rect1"
     width="16.210203"
     height="13.705998"
     x="0.33221069"
     y="0.33264136" /><path
     style="fill:#3aaaaa;fill-opacity:1;stroke-width:0.3;stroke-miterlimit:15.4"
     d="M 1.7110368,13.804529 6.1526758,0.38668922"
     id="path6" /><path
     style="fill:#3aaaaa;fill-opacity:1;stroke-width:0.300867;stroke-miterlimit:15.4"
     d="m 14.863565,0.45173415 1.588954,-4e-8 0.0046,13.48619789 -1.593601,-10e-7 z"
     id="path8" /><g
     id="g1"
     transform="matrix(1,0,0,1.0057784,-28.921896,-0.19443563)"><g
       id="g2"><path
         id="path7"
         style="fill:#3aaaaa;fill-opacity:1;stroke-width:0.3;stroke-miterlimit:15.4"
         d="m 37.329504,0.5808431 -4.470011,13.4332889 1.717208,0.0031 -5.17e-4,0.0016 0.0021,-0.0016 h 0.001 l 5.16e-4,-10e-4 4.755782,-3.399793 -0.505912,-1.6123044 -3.429248,2.4349934 2.747119,-8.6278971 3.496944,11.2039671 1.800407,-0.0021 -4.47983,-13.4322549 z" /></g></g><path
     style="font-weight:bold;font-size:18.3444px;font-family:'Be Vietnam Pro';-inkscape-font-specification:'Be Vietnam Pro Bold';fill:#101010;stroke-width:0.3;stroke-miterlimit:15.4"
     d="M 0.4016408,13.958376 V 0.38351966 h 8.954888 V 2.8416693 h -6.12985 v 3.5588136 h 4.227675 v 2.3664277 h -4.227675 v 5.1914654 z"
     id="text11"
     aria-label="F" /></svg>
