<?xml version="1.0" encoding="UTF-8" standalone="no"?>
<!-- Created with Inkscape (http://www.inkscape.org/) -->

<svg
   version="1.1"
   id="svg1"
   width="364.16"
   height="74.239998"
   viewBox="0 0 364.16 74.239998"
   xmlns="http://www.w3.org/2000/svg"
   xmlns:svg="http://www.w3.org/2000/svg">
  <defs
     id="defs1" />
  <g
     id="g1">
    <path
       style="font-size:96px;font-family:Lollipoptron;-inkscape-font-specification:Lollipoptron;stroke-width:3.677;stroke-linejoin:bevel;stroke-miterlimit:20"
       d="m 28.16887,10.416161 v 0.9375 q 0,0.9375 -0.09375,9.46875 0,8.4375 0,13.78125 0,7.78125 6.28125,13.40625 6.375,5.53125 14.90625,5.53125 h 25.875 q 1.59375,0 2.625,1.40625 1.03125,1.3125 1.03125,3.09375 0,1.78125 -1.03125,3.1875 -1.03125,1.3125 -2.625,1.3125 -10.40625,0.09375 -25.875,0.09375 -13.03125,0 -21.65625,-7.96875 -8.625,-8.0625 -9.375,-19.875 v -0.09375 l 0.84375,-24.28125 q 0,-1.5000004 1.3125,-2.5312504 1.40625,-1.03125 3.1875,-1.03125 1.78125,0 3.1875,1.03125 1.40625,1.03125 1.40625,2.5312504 z M 135.88762,9.5724106 q 0,-1.59375 1.40625,-2.625 1.40625,-1.03125 3.1875,-1.03125 1.78125,0 3.09375,1.03125 1.3125,1.03125 1.40625,2.53125 V 24.572411 q 0,1.5 -0.0937,2.25 v 4.3125 q 0,4.21875 0,8.15625 0,3.9375 0,5.34375 0,0.28125 0,0.75 0.0937,0.46875 0.0937,0.65625 0,7.875 -4.03125,13.125 -3.9375,5.25 -10.40625,7.5 -6.375,2.25 -14.8125,2.25 -12.75,0 -13.40625,-0.1875 -3,-0.9375 -3,-4.40625 0,-1.875 1.03125,-3.1875 1.125,-1.3125 2.8125,-1.3125 h 12.5625 q 20.15625,0 20.15625,-13.6875 v -1.21875 q -8.15625,7.59375 -18.9375,7.59375 -12.46875,0 -20.53125,-8.15625 -7.96875,-8.15625 -7.96875,-19.875 0,-12.1875 0.09375,-15.0000004 v -0.09375 q 0.09375,-1.59375 1.40625,-2.53125 1.3125,-0.9375 3.09375,-0.9375 1.78125,0 3.09375,1.03125 1.40625,1.03125 1.40625,2.625 V 25.134911 q 0,7.875 5.4375,13.59375 5.53125,5.625 13.96875,5.625 8.0625,0 13.21875,-5.25 5.25,-5.34375 5.71875,-13.03125 z m 36.1875,20.8125004 q 10.96875,-0.09375 27.28125,-0.09375 0.5625,0 1.875,0 1.40625,-0.09375 2.0625,-0.09375 2.71875,0 4.6875,0.46875 2.0625,0.46875 4.03125,1.875 1.96875,1.40625 3,4.40625 1.125,3 1.125,7.59375 0,5.625 -2.34375,9.375 -2.34375,3.65625 -6.9375,5.53125 -4.5,1.78125 -9.5625,2.53125 -5.0625,0.65625 -12.1875,0.65625 l -25.875,-0.09375 q -1.59375,0 -2.625,-1.3125 -1.03125,-1.40625 -1.03125,-3.1875 0,-1.78125 1.03125,-3.09375 1.03125,-1.40625 2.625,-1.40625 h 25.875 q 21.1875,0 21.1875,-9 0,-0.28125 0.0937,-0.5625 0.0937,-0.375 0.0937,-0.75 0,-3.84375 -7.40625,-3.84375 h -0.1875 q -2.25,-0.09375 -4.3125,-0.09375 -2.0625,0 -9.5625,0.09375 -7.5,0.09375 -13.21875,0.09375 h -3.75 q -2.71875,0 -4.6875,-0.46875 -1.96875,-0.46875 -4.03125,-1.875 -1.96875,-1.40625 -3,-4.5 -1.03125,-3.09375 -1.03125,-7.78125 0,-5.71875 2.25,-9.5625 2.34375,-3.84375 6.75,-5.7187504 4.40625,-1.96875 9.28125,-2.625 4.96875,-0.75 11.71875,-0.75 h 26.90625 q 1.59375,0 2.625,1.40625 1.03125,1.3125 1.03125,3.0937504 0,1.78125 -1.03125,3.1875 -1.03125,1.40625 -2.625,1.40625 h -26.90625 q -20.15625,0 -20.15625,9.5625 0,0.28125 -0.0937,0.65625 -0.0937,0.375 -0.0937,0.75 0,4.125 7.125,4.125 z m 56.25,-23.4375004 q 1.3125,-0.9375 3.09375,-0.9375 1.78125,0 3.09375,1.03125 1.3125,0.9375 1.40625,2.4375 V 59.072411 q 0,1.59375 -1.40625,2.625 -1.3125,0.9375 -3.09375,0.9375 -1.78125,0 -3.1875,-1.03125 -1.3125,-1.03125 -1.3125,-2.53125 V 9.5724106 q 0.0937,-1.6875 1.40625,-2.625 z m 81.28125,27.5625004 -0.0937,26.25 q 0,1.96875 -4.6875,1.96875 -4.3125,0 -4.3125,-1.96875 v -6.46875 q -9.09375,8.34375 -22.21875,8.34375 -13.125,0 -22.21875,-8.15625 -9,-8.25 -9,-19.96875 0,-11.71875 9,-19.875 9.09375,-8.1562504 22.21875,-8.1562504 13.125,0 22.21875,8.1562504 9.09375,8.15625 9.09375,19.875 z m -15.9375,-12.65625 q -6.375,-5.53125 -15.375,-5.53125 -9,0 -15.375,5.4375 -6.375,5.4375 -6.375,12.75 0,7.3125 6.375,12.84375 6.46875,5.4375 15.375,5.4375 9,0 15.375,-5.4375 6.46875,-5.53125 6.46875,-12.84375 0,-7.21875 -6.46875,-12.65625 z"
       id="text276778"
       aria-label="LYSIA" />
    <path
       style="font-size:40px;font-family:'Darty Zhedant';-inkscape-font-specification:'Darty Zhedant';fill:#3aaaaa;stroke-width:3.677;stroke-linejoin:bevel;stroke-miterlimit:20"
       d="m -48.401637,321.09965 q 0.08,-0.48 0.08,-1 0,-0.52 -0.2,-0.84 -1.16,0.68 -2.12,1.72 -0.92,1.04 -1.76,2.32 -0.8,1.24 -1.52,2.68 -0.68,1.44 -1.28,2.92 -0.72,1.8 -1.52,3.8 -0.76,1.96 -1.32,4 -0.52,2.04 -0.68,4.12 -0.16,2.04 0.4,4.04 0.6,0.36 1.44,-0.12 0.84,-0.48 1.68,-1.16 0.84,-0.72 1.56,-1.28 0.72,-0.56 1.08,-0.4 0.16,0.96 -0.48,1.64 -0.64,0.64 -1.28,1.24 -0.44,0.44 -1,0.96 -0.56,0.52 -1.24,0.88 -0.64,0.36 -1.44,0.52 -0.8,0.16 -1.68,-0.12 -0.84,-0.28 -1.44,-1 -0.56,-0.68 -0.96,-1.64 -0.36,-1 -0.52,-2.16 -0.16,-1.16 -0.08,-2.32 0.08,-3.44 1.12,-6.68 1.08,-3.28 2.64,-6.36 0.76,-1.52 1.64,-2.96 0.88,-1.44 1.8,-2.64 0.96,-1.24 1.96,-2.16 1.04,-0.96 2.08,-1.56 1.04,-0.56 1.96,-0.4 0.92,0.16 1.44,0.76 0.52,0.56 0.48,1.44 0,0.88 -0.84,1.76 z m 13.360025,8.76 q 0.28,0.44 0,1.52 -0.24,1.04 -0.76,2.36 -0.48,1.32 -1.08,2.8 -0.6,1.44 -1,2.64 -0.36,1.04 -0.68,2.12 -0.28,1.04 0.24,2.04 0.16,0.2 0.32,0.28 0.2,0.04 0.36,0.12 0.16,0.04 0.28,0.12 0.16,0.08 0.2,0.32 0.08,0.4 -0.12,0.6 -0.2,0.24 -0.56,0.32 -0.32,0.12 -0.72,0.12 -0.4,0 -0.68,-0.12 -0.68,-0.24 -1.24,-0.76 -0.56,-0.56 -0.92,-1.32 -0.36,-0.8 -0.44,-1.76 -0.08,-1 0.28,-2.08 -0.88,0.96 -1.6,2.12 -0.72,1.12 -1.6,2.24 -0.56,0.68 -1.16,1.4 -0.56,0.72 -1.28,1.28 -0.72,0.56 -1.64,0.92 -0.88,0.36 -2,0.36 -1.08,0 -1.72,-0.44 -0.64,-0.4 -0.92,-1.16 -0.28,-0.72 -0.28,-1.68 0.04,-0.96 0.32,-2.04 0.36,-1.52 1.48,-3.28 1.12,-1.76 2.64,-3.28 1.52,-1.56 3.32,-2.64 1.8,-1.12 3.52,-1.36 1.12,-0.12 1.8,0.12 0.68,0.24 1.32,0.64 0.36,-0.4 0.84,-1.08 0.48,-0.68 1,-1.2 0.56,-0.52 1.16,-0.68 0.64,-0.16 1.32,0.44 z m -9.52,5.64 q -0.84,0.64 -1.76,1.8 -0.92,1.12 -1.64,2.4 -0.68,1.28 -1,2.52 -0.32,1.2 0.04,1.96 1.24,-0.88 2.36,-2.08 1.12,-1.24 2.2,-2.52 1.08,-1.24 2.24,-2.52 1.16,-1.28 1.84,-2.8 -0.6,-0.36 -1.24,-0.32 -0.6,0.04 -1.16,0.28 -0.52,0.24 -1.04,0.64 -0.48,0.36 -0.84,0.64 z m 10.880027,10.48 q -0.44,-0.4 -0.68,-1 -0.2,-0.6 -0.28,-1.36 -0.04,-0.76 0.04,-1.6 0.08,-0.84 0.2,-1.72 0.68,-5.52 1.92,-10.36 1.28,-4.84 3.48,-8.92 0.4,-0.72 0.84,-1.6 0.48,-0.88 1.08,-1.56 0.6,-0.68 1.36,-1.04 0.76,-0.36 1.8,-0.08 0.48,0.24 0.48,0.76 0.04,0.48 -0.2,1.08 -0.2,0.6 -0.52,1.2 -0.32,0.6 -0.48,1.08 -1.16,2.88 -2.28,5.88 -1.12,2.96 -2.08,6.12 0.56,-0.48 1.52,-1.28 0.96,-0.8 2.08,-1.36 1.16,-0.6 2.36,-0.68 1.24,-0.12 2.28,0.76 0.88,0.76 1.2,2.04 0.32,1.28 0.12,2.96 -0.2,2.16 -1.48,4.32 -1.28,2.16 -3.28,3.8 -1.96,1.6 -4.44,2.36 -2.44,0.8 -5.04,0.2 z m 11.28,-11.8 q 0.08,-0.8 -0.12,-1.44 -0.16,-0.68 -0.8,-0.48 -1.8,0.48 -3.24,1.64 -1.4,1.16 -2.48,2.72 -1.04,1.56 -1.76,3.4 -0.72,1.84 -1.08,3.72 1.56,-0.44 3.16,-1.32 1.64,-0.92 3,-2.16 1.36,-1.24 2.28,-2.76 0.92,-1.56 1.04,-3.32 z m 13.0399897,-0.24 q -0.2,-0.16 -0.2,-0.48 0,-0.32 0.04,-0.64 0.04,-0.36 0.08,-0.68 0.04,-0.36 -0.12,-0.6 -1.0399997,-0.32 -1.9199997,-0.08 -0.84,0.24 -1.56,0.8 -0.72,0.52 -1.28,1.28 -0.56,0.72 -0.96,1.36 1.36,0.32 2.84,0.76 1.48,0.4 2.5999997,1.12 1.12,0.68 1.68,1.72 0.56,1.04 0.16,2.6 -0.24,0.92 -1.12,1.96 -0.84,1 -1.9999997,1.84 -1.12,0.88 -2.44,1.48 -1.32,0.6 -2.52,0.72 -1.52,0.16 -2.72,-0.4 -1.2,-0.52 -1.4,-1.8 -0.2,-1.04 0.28,-2.08 0.48,-1.08 0.96,-1.84 0.24,-0.4 0.56,-0.84 0.36,-0.48 0.72,-0.8 0.36,-0.36 0.72,-0.44 0.36,-0.12 0.64,0.24 0.16,0.24 0,0.56 -0.16,0.32 -0.4,0.76 -0.24,0.44 -0.48,1 -0.2,0.56 -0.12,1.2 0.16,0.4 1.04,0.2 0.88,-0.2 1.84,-0.68 1,-0.52 1.8,-1.16 0.84,-0.68 0.92,-1.28 0.08,-0.56 -0.56,-0.92 -0.6,-0.4 -1.48,-0.64 -0.84,-0.28 -1.72,-0.48 -0.84,-0.2 -1.24,-0.4 -1,-0.48 -1.48,-1.56 -0.44,-1.08 0.12,-2.44 0.32,-0.8 1.04,-1.56 0.76,-0.8 1.52,-1.48 0.44,-0.4 1.28,-0.88 0.88,-0.52 1.88,-0.8 1.04,-0.32 2.04,-0.24 1.0399997,0.08 1.8399997,0.88 0.36,0.36 0.52,1.08 0.2,0.68 0.08,1.44 -0.08,0.72 -0.44,1.36 -0.36,0.64 -1.04,0.84 z"
       id="text276779"
       transform="rotate(-90)"
       aria-label="labs" />
  </g>
</svg>
